<?xml version="1.0" encoding="UTF-8"?>
<svg id="Layer_2" data-name="Layer 2" xmlns="http://www.w3.org/2000/svg" xmlns:xlink="http://www.w3.org/1999/xlink" viewBox="0 0 136.06 41.11">
  <defs>
    <style>
      .cls-1 {
        fill: #fff;
      }

      .cls-2 {
        fill: url(#radial-gradient);
      }
    </style>
    <radialGradient id="radial-gradient" cx="46.27" cy="2.54" fx="46.27" fy="2.54" r="7.9" gradientUnits="userSpaceOnUse">
      <stop offset=".02" stop-color="#7dfaea"/>
      <stop offset=".44" stop-color="#00cfec"/>
      <stop offset=".85" stop-color="#1a59fd"/>
      <stop offset=".91" stop-color="#195afc"/>
      <stop offset=".94" stop-color="#1861fb"/>
      <stop offset=".95" stop-color="#156dfa"/>
      <stop offset=".97" stop-color="#117ef7"/>
      <stop offset=".98" stop-color="#0c94f4"/>
      <stop offset=".99" stop-color="#07aef0"/>
      <stop offset="1" stop-color="#00ceec"/>
      <stop offset="1" stop-color="#00cfec"/>
    </radialGradient>
  </defs>
  <g id="Layer_1-2" data-name="Layer 1">
    <g>
      <g>
        <g>
          <path class="cls-1" d="M3.77,23.76s3.32,3.03,7.01,3.03c1.48,0,3.07-.57,3.07-2.34,0-3.48-13.2-3.36-13.2-12.38C.66,6.66,5.21,3.1,11.03,3.1c6.31,0,9.43,3.32,9.43,3.32l-3.03,5.86s-2.95-2.58-6.48-2.58c-1.48,0-3.12,.66-3.12,2.3,0,3.69,13.2,3.03,13.2,12.3,0,4.88-3.73,9.1-10.33,9.1S0,29.21,0,29.21l3.77-5.45Z"/>
          <path class="cls-1" d="M21.85,11.79h6.81v1.84c0,.7-.08,1.31-.08,1.31h.08c.98-1.64,2.99-3.65,6.72-3.65,4.26,0,7.58,1.97,7.58,7.91v13.69h-7.09v-12.38c0-1.97-.78-2.79-2.34-2.79-2.21,0-3.57,1.23-4.18,3.03-.29,.82-.41,1.76-.41,2.79v9.35h-7.09V11.79Z"/>
          <path class="cls-1" d="M44.65,11.79h7.09v21.12h-7.09V11.79Z"/>
          <path class="cls-1" d="M53.71,11.79h6.4v1.07c0,.7-.08,1.35-.08,1.35h.08s1.93-2.91,6.4-2.91c5.74,0,9.51,4.51,9.51,11.07s-4.22,11.03-9.84,11.03c-3.44,0-5.37-2.01-5.37-2.01h-.08s.08,.74,.08,1.8v7.91h-7.09V11.79Zm11.03,15.74c2.21,0,4.14-1.8,4.14-5.04s-1.68-5.21-4.14-5.21c-2.13,0-4.14,1.56-4.14,5.21,0,2.54,1.35,5.04,4.14,5.04Z"/>
          <path class="cls-1" d="M76.55,11.79h6.4v1.07c0,.7-.08,1.35-.08,1.35h.08s1.93-2.91,6.4-2.91c5.74,0,9.51,4.51,9.51,11.07s-4.22,11.03-9.84,11.03c-3.44,0-5.37-2.01-5.37-2.01h-.08s.08,.74,.08,1.8v7.91h-7.09V11.79Zm11.03,15.74c2.21,0,4.14-1.8,4.14-5.04s-1.68-5.21-4.14-5.21c-2.13,0-4.14,1.56-4.14,5.21,0,2.54,1.35,5.04,4.14,5.04Z"/>
          <path class="cls-1" d="M108.85,11.3c6.23,0,9.76,4.35,9.76,10.21,0,.7-.16,2.21-.16,2.21h-13.32c.53,2.58,2.67,3.77,4.92,3.77,3.03,0,5.82-2.13,5.82-2.13l2.62,4.96s-3.4,3.08-9.02,3.08c-7.54,0-11.6-5.45-11.6-11.07,0-6.19,4.18-11.03,10.99-11.03Zm2.62,8.36c0-1.6-1.11-3.03-2.79-3.03-2.05,0-3.03,1.48-3.4,3.03h6.19Z"/>
          <path class="cls-1" d="M120.25,17.69h-2.71v-5.54h2.91V6.09h6.89v6.07h4.43v5.54h-4.43v6.48c0,2.38,2.42,2.71,3.77,2.71,.57,0,.94-.04,.94-.04v6.15s-.78,.12-1.93,.12c-3.36,0-9.88-.9-9.88-8v-7.42Z"/>
        </g>
        <path class="cls-1" d="M136.06,3.69c0,1.3-1.02,2.33-2.35,2.33s-2.37-1.02-2.37-2.33,1.05-2.3,2.37-2.3,2.35,1.02,2.35,2.3Zm-4.13,0c0,1.02,.76,1.83,1.79,1.83s1.75-.81,1.75-1.82-.74-1.85-1.76-1.85-1.78,.83-1.78,1.83Zm1.41,1.2h-.53V2.6c.21-.04,.5-.07,.88-.07,.43,0,.63,.07,.8,.17,.13,.1,.22,.28,.22,.5,0,.25-.2,.45-.48,.53v.03c.22,.08,.35,.25,.42,.56,.07,.35,.11,.49,.17,.57h-.57c-.07-.08-.11-.29-.18-.56-.04-.25-.18-.36-.48-.36h-.25v.92Zm.01-1.3h.25c.29,0,.53-.1,.53-.34,0-.21-.15-.35-.49-.35-.14,0-.24,.01-.29,.03v.66Z"/>
      </g>
      <path class="cls-2" d="M47.93,0c2.81,0,5.09,2.28,5.09,5.09s-2.28,5.09-5.09,5.09-5.09-2.28-5.09-5.09,2.28-5.09,5.09-5.09Z"/>
    </g>
  </g>
</svg>